<mxfile host="app.diagrams.net" modified="2020-10-20T16:08:38.461Z" agent="5.0 (Windows NT 10.0; Win64; x64) AppleWebKit/537.36 (KHTML, like Gecko) Chrome/86.0.4240.75 Safari/537.36" etag="3qVWeHsBKLUa4aNaymA6" version="13.8.1" type="github">
  <diagram id="C5RBs43oDa-KdzZeNtuy" name="Page-1">
    <mxGraphModel dx="868" dy="482" grid="1" gridSize="10" guides="1" tooltips="1" connect="1" arrows="1" fold="1" page="1" pageScale="1" pageWidth="827" pageHeight="1169" math="0" shadow="0">
      <root>
        <mxCell id="WIyWlLk6GJQsqaUBKTNV-0" />
        <mxCell id="WIyWlLk6GJQsqaUBKTNV-1" parent="WIyWlLk6GJQsqaUBKTNV-0" />
        <mxCell id="2CX-5rcCyxk1sX1MMpEw-1" value="Book" style="html=1;" vertex="1" parent="WIyWlLk6GJQsqaUBKTNV-1">
          <mxGeometry x="250" y="180" width="110" height="50" as="geometry" />
        </mxCell>
        <mxCell id="2CX-5rcCyxk1sX1MMpEw-2" value="Author" style="html=1;" vertex="1" parent="WIyWlLk6GJQsqaUBKTNV-1">
          <mxGeometry x="480" y="115" width="110" height="50" as="geometry" />
        </mxCell>
        <mxCell id="2CX-5rcCyxk1sX1MMpEw-3" value="Owner" style="html=1;" vertex="1" parent="WIyWlLk6GJQsqaUBKTNV-1">
          <mxGeometry x="250" y="30" width="110" height="50" as="geometry" />
        </mxCell>
        <mxCell id="2CX-5rcCyxk1sX1MMpEw-4" value="Publisher" style="html=1;" vertex="1" parent="WIyWlLk6GJQsqaUBKTNV-1">
          <mxGeometry x="480" y="230" width="110" height="50" as="geometry" />
        </mxCell>
        <mxCell id="2CX-5rcCyxk1sX1MMpEw-5" value="Library" style="html=1;" vertex="1" parent="WIyWlLk6GJQsqaUBKTNV-1">
          <mxGeometry x="10" y="180" width="110" height="50" as="geometry" />
        </mxCell>
        <mxCell id="2CX-5rcCyxk1sX1MMpEw-6" value="Fiction category" style="html=1;" vertex="1" parent="WIyWlLk6GJQsqaUBKTNV-1">
          <mxGeometry x="180" y="360" width="120" height="50" as="geometry" />
        </mxCell>
        <mxCell id="2CX-5rcCyxk1sX1MMpEw-7" value="Mystery category" style="html=1;" vertex="1" parent="WIyWlLk6GJQsqaUBKTNV-1">
          <mxGeometry x="320" y="360" width="110" height="50" as="geometry" />
        </mxCell>
        <mxCell id="2CX-5rcCyxk1sX1MMpEw-10" value="" style="endArrow=block;endSize=16;endFill=0;html=1;entryX=0.25;entryY=1;entryDx=0;entryDy=0;" edge="1" parent="WIyWlLk6GJQsqaUBKTNV-1" source="2CX-5rcCyxk1sX1MMpEw-6" target="2CX-5rcCyxk1sX1MMpEw-1">
          <mxGeometry width="160" relative="1" as="geometry">
            <mxPoint x="330" y="270" as="sourcePoint" />
            <mxPoint x="490" y="270" as="targetPoint" />
          </mxGeometry>
        </mxCell>
        <mxCell id="2CX-5rcCyxk1sX1MMpEw-12" value="" style="endArrow=block;endSize=16;endFill=0;html=1;entryX=0.75;entryY=1;entryDx=0;entryDy=0;exitX=0.427;exitY=0.02;exitDx=0;exitDy=0;exitPerimeter=0;" edge="1" parent="WIyWlLk6GJQsqaUBKTNV-1" source="2CX-5rcCyxk1sX1MMpEw-7" target="2CX-5rcCyxk1sX1MMpEw-1">
          <mxGeometry width="160" relative="1" as="geometry">
            <mxPoint x="290" y="340" as="sourcePoint" />
            <mxPoint x="450" y="340" as="targetPoint" />
          </mxGeometry>
        </mxCell>
        <mxCell id="2CX-5rcCyxk1sX1MMpEw-13" value="" style="endArrow=diamondThin;endFill=0;endSize=24;html=1;entryX=0.5;entryY=1;entryDx=0;entryDy=0;exitX=0.5;exitY=0;exitDx=0;exitDy=0;" edge="1" parent="WIyWlLk6GJQsqaUBKTNV-1" source="2CX-5rcCyxk1sX1MMpEw-1" target="2CX-5rcCyxk1sX1MMpEw-3">
          <mxGeometry width="160" relative="1" as="geometry">
            <mxPoint x="110" y="100" as="sourcePoint" />
            <mxPoint x="270" y="100" as="targetPoint" />
          </mxGeometry>
        </mxCell>
        <mxCell id="2CX-5rcCyxk1sX1MMpEw-14" value="" style="endArrow=diamondThin;endFill=1;endSize=24;html=1;entryX=1;entryY=0.5;entryDx=0;entryDy=0;exitX=0;exitY=0.5;exitDx=0;exitDy=0;" edge="1" parent="WIyWlLk6GJQsqaUBKTNV-1" source="2CX-5rcCyxk1sX1MMpEw-2" target="2CX-5rcCyxk1sX1MMpEw-1">
          <mxGeometry width="160" relative="1" as="geometry">
            <mxPoint x="480" y="300" as="sourcePoint" />
            <mxPoint x="640" y="300" as="targetPoint" />
          </mxGeometry>
        </mxCell>
        <mxCell id="2CX-5rcCyxk1sX1MMpEw-15" value="" style="endArrow=open;endFill=0;endSize=12;html=1;entryX=1;entryY=0.75;entryDx=0;entryDy=0;startArrow=none;startFill=0;exitX=0;exitY=0.5;exitDx=0;exitDy=0;" edge="1" parent="WIyWlLk6GJQsqaUBKTNV-1" source="2CX-5rcCyxk1sX1MMpEw-4" target="2CX-5rcCyxk1sX1MMpEw-1">
          <mxGeometry width="160" relative="1" as="geometry">
            <mxPoint x="680" y="210" as="sourcePoint" />
            <mxPoint x="590" y="300" as="targetPoint" />
            <Array as="points" />
          </mxGeometry>
        </mxCell>
        <mxCell id="2CX-5rcCyxk1sX1MMpEw-16" value="" style="endArrow=diamondThin;endFill=1;endSize=24;html=1;exitX=1;exitY=0.5;exitDx=0;exitDy=0;entryX=0;entryY=0.5;entryDx=0;entryDy=0;" edge="1" parent="WIyWlLk6GJQsqaUBKTNV-1" source="2CX-5rcCyxk1sX1MMpEw-5" target="2CX-5rcCyxk1sX1MMpEw-1">
          <mxGeometry width="160" relative="1" as="geometry">
            <mxPoint x="90" y="110" as="sourcePoint" />
            <mxPoint x="250" y="110" as="targetPoint" />
          </mxGeometry>
        </mxCell>
        <mxCell id="2CX-5rcCyxk1sX1MMpEw-17" value="own" style="text;html=1;align=center;verticalAlign=middle;resizable=0;points=[];autosize=1;" vertex="1" parent="WIyWlLk6GJQsqaUBKTNV-1">
          <mxGeometry x="310" y="130" width="40" height="20" as="geometry" />
        </mxCell>
        <mxCell id="2CX-5rcCyxk1sX1MMpEw-19" value="has" style="text;html=1;align=center;verticalAlign=middle;resizable=0;points=[];autosize=1;" vertex="1" parent="WIyWlLk6GJQsqaUBKTNV-1">
          <mxGeometry x="160" y="180" width="30" height="20" as="geometry" />
        </mxCell>
        <mxCell id="2CX-5rcCyxk1sX1MMpEw-20" value="write" style="text;html=1;align=center;verticalAlign=middle;resizable=0;points=[];autosize=1;rotation=-30;" vertex="1" parent="WIyWlLk6GJQsqaUBKTNV-1">
          <mxGeometry x="393.5" y="145" width="40" height="20" as="geometry" />
        </mxCell>
        <mxCell id="2CX-5rcCyxk1sX1MMpEw-21" value="publish" style="text;html=1;align=center;verticalAlign=middle;resizable=0;points=[];autosize=1;rotation=15;" vertex="1" parent="WIyWlLk6GJQsqaUBKTNV-1">
          <mxGeometry x="389" y="245" width="50" height="20" as="geometry" />
        </mxCell>
      </root>
    </mxGraphModel>
  </diagram>
</mxfile>
